<?xml version="1.0" encoding="utf-8"?>
<!-- Generator: Adobe Illustrator 24.3.0, SVG Export Plug-In . SVG Version: 6.00 Build 0)  -->
<svg version="1.1" id="Layer_1" xmlns="http://www.w3.org/2000/svg" xmlns:xlink="http://www.w3.org/1999/xlink" x="0px" y="0px"
	 viewBox="0 0 638 108" style="enable-background:new 0 0 638 108;" xml:space="preserve">
<style type="text/css">
	.st0{fill:#FFFFFF;}
</style>
<g id="Group_9" transform="translate(-720 -424)">
	<path id="Path_3" class="st0" d="M720,426v102h68v-11h-54v-91H720z M926,486l17-48h1l17,48H926z M936,426l-40,102h14l12-31h43
		l11,31h15l-40-102H936z M1001,426v102h13v-82l0,0l53,82h15V426h-13v83l0,0l-54-83H1001z M1125,474v-31h18c2.4,0.1,4.7,0.5,7,1
		c2.4,0.4,5.2,0.9,7,2s2.9,3,4,5c2.7,5,2.7,11,0,16c-0.9,1.7-2.3,3.1-4,4c-1.8,1.1-4.6,1.6-7,2c-2.3,0.5-4.6,0.9-7,1H1125z
		 M1103,426v102h22v-37h24c6.4,0,11.5-0.1,16-2c4.2-1.8,7.9-4.6,11-8c2.7-2.8,4.8-6.3,6-10c1.3-3.9,2-7.9,2-12c0-4.4-0.7-8.8-2-13
		c-1.2-3.7-3.3-7.2-6-10c-2.8-3.1-6.5-5.1-11-7c-5.1-2.1-10.5-3.1-16-3H1103z M1214,489l13-38l0,0l13,38H1214z M1216,426l-39,102h23
		l8-23h38l8,23h23l-38-102H1216z M1286,426v102h72v-19h-50v-83H1286z"/>
	<g id="smile" transform="translate(790 423.898)">
		<g id="Group_2">
			<g id="Group_1">
				<path id="Path_1" class="st0" d="M93,16.1c-10.4-10.3-24.4-16-39-16c-14.3,0-28,5.8-38,16c-10.2,10-16,23.7-16,38
					c0,14.6,5.7,28.6,16,39c10.3,10.3,23.5,15,38,15s28.7-4.7,39-15c10.3-10.4,16-24.4,16-39C109,39.8,103.2,26.1,93,16.1z
					 M54,100.1c-25.4,0-46-20.6-46-46s20.6-46,46-46s46,20.6,46,46C99.9,79.5,79.4,100,54,100.1z"/>
			</g>
		</g>
		<g id="Group_4" transform="translate(22.321 60.436)">
			<g id="Group_3">
				<path id="Path_2" class="st0" d="M55.7-0.3c-1,3.3-2.7,6.4-5,9c-4.8,5.6-10.7,9-18,9c-7.3,0-13.9-3.3-19-9c-2.4-2.7-4.4-5.7-6-9
					l-8,3c2.1,4.3,4.8,8.4,8,12c6.7,7.6,15.2,11,25,11c9.8,0,18.6-3.3,25-11c2.9-3.5,4.9-7.6,6-12L55.7-0.3z"/>
			</g>
		</g>
		<g id="Group_6" transform="translate(28.839 31.409)">
			<g id="Group_5">
				<ellipse id="Ellipse_1" class="st0" cx="6.7" cy="6.7" rx="6.5" ry="7"/>
			</g>
		</g>
		<g id="Group_8" transform="translate(66.16 31.409)">
			<g id="Group_7">
				<circle id="Ellipse_2" class="st0" cx="6.8" cy="6.7" r="7"/>
			</g>
		</g>
	</g>
</g>
</svg>
